<svg width="84" height="80" viewBox="0 0 84 80" fill="none" xmlns="http://www.w3.org/2000/svg">
<path d="M39.1317 1.11085C34.0162 1.11085 28.8893 1.50595 23.8176 2.65697C16.6238 4.28963 11.2417 7.19085 7.36125 11.5255C2.80312 16.6178 0.511865 24.5933 1.23824 32.8594C1.93536 40.8333 5.23253 47.6757 10.2798 51.6349C17.5257 57.3149 27.1294 57.4276 34.8465 57.5157L57.6145 57.7786C63.9227 57.8504 71.0711 57.9337 77.3094 61.2431C82.9092 64.2129 87.256 69.4749 91.4615 74.5623C91.9279 75.1272 92.3992 75.697 92.8753 76.2684C90.7027 69.9909 90.9431 62.6243 93.6683 56.6064C94.5262 54.7141 95.6102 52.9623 96.6583 51.2692C97.7747 49.4684 98.9268 47.6072 99.78 45.6055C105.001 33.3639 98.2443 18.3304 88.9915 11.4227C79.0969 4.0382 66.8103 2.99003 55.9683 2.06595C50.4271 1.59248 44.7834 1.11085 39.1317 1.11085ZM94.8577 79.9925C94.7034 79.9925 94.5506 79.9288 94.4434 79.8064C93.1482 78.3419 91.858 76.7827 90.6117 75.2725C86.476 70.2684 82.199 65.0929 76.7926 62.226C70.7915 59.0406 63.7845 58.9606 57.6014 58.8904L34.8335 58.6259C26.9506 58.5362 17.1389 58.4219 9.5989 52.51C4.30952 48.3631 0.861275 41.2366 0.136525 32.9557C-0.614225 24.3892 1.77944 16.1002 6.53744 10.7827C10.5788 6.27167 16.1492 3.25779 23.5739 1.57289C34.4159 -0.887517 45.4204 0.0512595 56.0625 0.959015C66.5064 1.84881 79.5048 2.95738 89.6497 10.5296C99.2404 17.6904 106.231 33.3035 100.796 46.0431C99.9083 48.1215 98.735 50.0202 97.5975 51.8553C96.5689 53.519 95.5029 55.2398 94.6757 57.0668C91.5704 63.9206 91.8337 72.5998 95.3453 79.1745C95.4769 79.4227 95.4038 79.7313 95.173 79.8929L94.8577 79.9925Z" fill="#FF0000"/>
<path d="M68.9292 27.9746C67.2099 27.9746 65.8125 29.6628 65.8125 31.7395C65.8125 33.8146 67.2099 35.5028 68.9292 35.5028C70.6484 35.5028 72.0476 33.8146 72.0476 31.7395C72.0476 29.6628 70.6484 27.9746 68.9292 27.9746ZM68.9292 36.6146C66.6006 36.6146 64.7058 34.4269 64.7058 31.7395C64.7058 29.0505 66.6006 26.8628 68.9292 26.8628C71.2578 26.8628 73.1526 29.0505 73.1526 31.7395C73.1526 34.4269 71.2578 36.6146 68.9292 36.6146Z" fill="#FF0000"/>
<path d="M51.4215 27.9746C49.7022 27.9746 48.3031 29.6628 48.3031 31.7395C48.3031 33.8146 49.7022 35.5028 51.4215 35.5028C53.1407 35.5028 54.5399 33.8146 54.5399 31.7395C54.5399 29.6628 53.1407 27.9746 51.4215 27.9746ZM51.4215 36.6146C49.0929 36.6146 47.1981 34.4269 47.1981 31.7395C47.1981 29.0505 49.0929 26.8628 51.4215 26.8628C53.7501 26.8628 55.6449 29.0505 55.6449 31.7395C55.6449 34.4269 53.7501 36.6146 51.4215 36.6146Z" fill="#FF0000"/>
<path d="M33.7529 27.9746C32.0353 27.9746 30.6345 29.6628 30.6345 31.7395C30.6345 33.8146 32.0353 35.5028 33.7529 35.5028C35.4738 35.5028 36.8713 33.8146 36.8713 31.7395C36.8713 29.6628 35.4738 27.9746 33.7529 27.9746ZM33.7529 36.6146C31.4259 36.6146 29.5311 34.4269 29.5311 31.7395C29.5311 29.0505 31.4259 26.8628 33.7529 26.8628C36.0832 26.8628 37.9779 29.0505 37.9779 31.7395C37.9779 34.4269 36.0832 36.6146 33.7529 36.6146Z" fill="#FF0000"/>
</svg>
